# xmcd
#
# Track frame offsets:
#	150
#	20344
#	36897
#	58627
#	80600
#	125381
#	152573
#	175464
#	182790
#	198994
#	221032
#	253757
#
# Disc length: 3739 seconds
#
# Revision: 1
# Processed by: cddbd v1.5.1PL2 Copyright (c) Steve Scherf et al.
# Submitted via: EasyCDDAExtractor 9.0.0.1
#
DISCID=a60e990c
DTITLE=Guns and Roses - RDS Arena Dublin 09-06-06 Disc 1
DYEAR=2006
DGENRE=Hard Rock
TTITLE0=Welcome To The Jungle
TTITLE1=It's So Easy
TTITLE2=Mr Brownstone
TTITLE3=Live And Let Die
TTITLE4=Knockin' On Heavens Door
TTITLE5=Richard Solo and Robin (Beautiful)
TTITLE6=Out Ta Get Me
TTITLE7=Band Jam
TTITLE8=Dizzy Solo
TTITLE9=The Blues
TTITLE10=Bumblefoot Solo (Don't Cry Instrumental)
TTITLE11=You Could Be Mine 
EXTD=
EXTT0=
EXTT1=
EXTT2=
EXTT3=
EXTT4=
EXTT5=
EXTT6=
EXTT7=
EXTT8=
EXTT9=
EXTT10=
EXTT11=
PLAYORDER=
